<svg width="100%" viewBox="0 0 900 260" xmlns="http://www.w3.org/2000/svg">
  <defs>
    <filter id="glow2" x="-60%" y="-60%" width="220%" height="220%">
      <feGaussianBlur stdDeviation="2.6" result="blur"/>
      <feMerge>
        <feMergeNode in="blur"/>
        <feMergeNode in="SourceGraphic"/>
      </feMerge>
    </filter>
    <pattern id="scanlines2" width="8" height="4" patternUnits="userSpaceOnUse">
      <rect width="8" height="1" fill="#000000" opacity="0.4"/>
    </pattern>
  </defs>

  <rect x="0" y="0" width="900" height="260" rx="16" fill="#050705"/>
  <rect x="4" y="4" width="892" height="252" rx="12" fill="#000000" stroke="#00FF41" stroke-width="1.2" opacity="0.95"/>

  <!-- left monogram block -->
  <rect x="26" y="26" width="180" height="180" rx="10" fill="#020a03" stroke="#1f6e33" stroke-width="1.5"/>
  <!-- corner reticle ticks -->
  <path d="M26 46 L26 26 L46 26" fill="none" stroke="#00FF41" stroke-width="2"/>
  <path d="M186 26 L206 26 L206 46" fill="none" stroke="#00FF41" stroke-width="2"/>
  <path d="M26 186 L26 206 L46 206" fill="none" stroke="#00FF41" stroke-width="2"/>
  <path d="M206 186 L206 206 L186 206" fill="none" stroke="#00FF41" stroke-width="2"/>
  <text x="116" y="140" text-anchor="middle" font-family="Consolas, 'Courier New', monospace" font-size="82" font-weight="bold" fill="#00FF41" filter="url(#glow2)">AJ</text>

  <!-- header -->
  <text x="230" y="42" font-family="Consolas, 'Courier New', monospace" font-size="17" font-weight="bold" fill="#33FF66">guest@ADITYA-JHA</text>
  <rect x="230" y="50" width="644" height="1.5" fill="#1f6e33"/>

  <!-- fields -->
  <g font-family="Consolas, 'Courier New', monospace" font-size="14">
    <text x="230" y="76"><tspan fill="#00FF41" font-weight="bold">OS</tspan><tspan fill="#4d804d">:      </tspan><tspan fill="#c8ffd9">AdityaOS [Full-Stack Edition]</tspan></text>
    <text x="230" y="99"><tspan fill="#00FF41" font-weight="bold">Host</tspan><tspan fill="#4d804d">:    </tspan><tspan fill="#c8ffd9">github.com/adityajha-coder</tspan></text>
    <text x="230" y="122"><tspan fill="#00FF41" font-weight="bold">Kernel</tspan><tspan fill="#4d804d">:  </tspan><tspan fill="#c8ffd9">React 18 · Node 20 · Express</tspan></text>
    <text x="230" y="145"><tspan fill="#00FF41" font-weight="bold">Shell</tspan><tspan fill="#4d804d">:   </tspan><tspan fill="#c8ffd9">JavaScript ⨯ TypeScript</tspan></text>
    <text x="230" y="168"><tspan fill="#00FF41" font-weight="bold">DE</tspan><tspan fill="#4d804d">:      </tspan><tspan fill="#c8ffd9">MERN Stack</tspan></text>
    <text x="230" y="191"><tspan fill="#00FF41" font-weight="bold">CPU</tspan><tspan fill="#4d804d">:     </tspan><tspan fill="#c8ffd9">Problem-Solving Core (100% util)</tspan></text>
    <text x="230" y="214"><tspan fill="#00FF41" font-weight="bold">Memory</tspan><tspan fill="#4d804d">:  </tspan><tspan fill="#c8ffd9">∞ browser tabs, mostly Stack Overflow</tspan></text>
  </g>

  <!-- color swatch row -->
  <g>
    <rect x="230" y="228" width="18" height="18" fill="#003d0f"/>
    <rect x="250" y="228" width="18" height="18" fill="#0a6b1f"/>
    <rect x="270" y="228" width="18" height="18" fill="#1f9e3a"/>
    <rect x="290" y="228" width="18" height="18" fill="#33ff66"/>
    <rect x="310" y="228" width="18" height="18" fill="#7ee89a"/>
    <rect x="330" y="228" width="18" height="18" fill="#00ff41"/>
    <rect x="350" y="228" width="18" height="18" fill="#c8ffd9"/>
    <rect x="370" y="228" width="18" height="18" fill="#ffffff"/>
  </g>

  <rect x="4" y="4" width="892" height="252" rx="12" fill="url(#scanlines2)"/>
</svg>